# Blender v2.80 (sub 75) OBJ File: ''
# www.blender.org
o Plane
v -0.000000 1.000000 0.000000
v 0.000000 -0.000000 0.000000
v 1.000000 1.000000 1.000000
v 1.000000 0.000000 1.000000
v 1.000000 1.000000 0.000000
v 1.000000 0.000000 0.000000
v 0.000000 1.000000 1.000000
v 0.000000 0.000000 1.000000
vt 0.000126 0.000042
vt 0.999958 0.999958
vt 0.000126 0.999958
vt 0.000126 0.000042
vt 0.999958 0.999958
vt 0.000126 0.999958
vt 0.999958 0.000042
vt 0.999958 0.000042
vn -0.7071 -0.0000 0.7071
vn -0.7071 -0.0000 -0.7071
s off
f 2/1/1 3/2/1 1/3/1
f 6/4/2 7/5/2 5/6/2
f 2/1/1 4/7/1 3/2/1
f 6/4/2 8/8/2 7/5/2
