# Blender v2.80 (sub 75) OBJ File: ''
# www.blender.org
mtllib pyramid_cube.mtl
o Cube_Cube.002
v 2.500000 2.500000 -2.500000
v 2.500000 -0.500000 -1.500000
v 2.500000 -0.500000 -2.500000
v 2.500000 2.500000 -1.500000
v 1.500000 -0.500000 -1.500000
v 1.500000 2.500000 -1.500000
v 1.500000 -0.500000 -2.500000
v 1.500000 2.500000 -2.500000
v -0.122017 0.000000 -1.021308
v -1.000000 2.000000 -1.500000
v -1.853551 0.000000 -0.978991
v -1.024432 0.000000 -2.499701
vt 0.625000 0.000000
vt 0.375000 0.250000
vt 0.375000 0.000000
vt 0.625000 0.250000
vt 0.375000 0.500000
vt 0.625000 0.500000
vt 0.375000 0.750000
vt 0.625000 0.750000
vt 0.375000 1.000000
vt 0.125000 0.750000
vt 0.125000 0.500000
vt 0.875000 0.500000
vt 0.625000 1.000000
vt 0.875000 0.750000
vt 0.250000 0.490000
vt 0.250000 0.250000
vt 0.457846 0.130000
vt 0.042154 0.130000
vt 0.750000 0.490000
vt 0.957846 0.130000
vt 0.542154 0.130000
vn 1.0000 0.0000 0.0000
vn 0.0000 -0.0000 1.0000
vn -1.0000 0.0000 0.0000
vn 0.0000 0.0000 -1.0000
vn 0.0000 -1.0000 -0.0000
vn 0.0000 1.0000 0.0000
vn 0.0237 0.2425 0.9699
vn -0.8518 0.2425 -0.4644
vn 0.8281 0.2425 -0.5055
usemtl None
s 1
f 1/1/1 2/2/1 3/3/1
f 4/4/2 5/5/2 2/2/2
f 6/6/3 7/7/3 5/5/3
f 8/8/4 3/9/4 7/7/4
f 5/5/5 3/10/5 2/11/5
f 4/12/6 8/8/6 6/6/6
f 1/1/1 4/4/1 2/2/1
f 4/4/2 6/6/2 5/5/2
f 6/6/3 8/8/3 7/7/3
f 8/8/4 1/13/4 3/9/4
f 5/5/5 7/7/5 3/10/5
f 4/12/6 1/14/6 8/8/6
f 9/15/7 10/16/7 11/17/7
f 11/17/8 10/16/8 12/18/8
f 12/18/9 10/16/9 9/15/9
f 9/19/5 11/20/5 12/21/5
