# Blender v2.80 (sub 75) OBJ File: ''
# www.blender.org
mtllib ScreenQuad.mtl
o Plane
v 1.000000 1.000000 0.000000
v -1.000000 1.000000 0.000000
v 1.000000 -1.000000 0.000000
v -1.000000 -1.000000 0.000000
v 1.000000 1.000000 0.000000
v -1.000000 1.000000 0.000000
v 1.000000 -1.000000 0.000000
v -1.000000 -1.000000 0.000000
vt 0.999900 0.999900
vt 0.999900 0.000100
vt 0.000100 0.000100
vt 0.000100 0.999900
vt 0.999900 0.999900
vt 0.000100 0.999900
vt 0.000100 0.000100
vt 0.999900 0.000100
vn 0.0000 0.0000 -1.0000
vn 0.0000 0.0000 1.0000
usemtl None
s off
f 1/1/1 3/2/1 4/3/1 2/4/1
f 5/5/2 6/6/2 8/7/2 7/8/2
f 4/3/2 3/2/2 7/8/2 8/7/2
f 1/1/2 2/4/2 6/6/2 5/5/2
f 2/4/2 4/3/2 8/7/2 6/6/2
f 3/2/2 1/1/2 5/5/2 7/8/2
